HIERARCHY
ROOT root
{
	OFFSET	0	13.1	24.9
	CHANNELS 6  Xposition Yposition Zposition Xrotation Yrotation Zrotation
	JOINT spine_1
	{
		OFFSET	0	9.99999	0
		CHANNELS 3  Xrotation Yrotation Zrotation
		JOINT spine_2
		{
			OFFSET	0	112	-10
			CHANNELS 3  Xrotation Yrotation Zrotation
			JOINT spine_3
			{
				OFFSET	0	206.5	19.3
				CHANNELS 3  Xrotation Yrotation Zrotation
				JOINT spine_4
				{
					OFFSET	0	110.4	14.6
					CHANNELS 3  Xrotation Yrotation Zrotation
					JOINT neck_1
					{
						OFFSET	0	71.8	-50.3
						CHANNELS 3  Xrotation Yrotation Zrotation
						JOINT neck_2
						{
							OFFSET	0	86.2	-25.8
							CHANNELS 3  Xrotation Yrotation Zrotation
							JOINT head_ee
							{
								OFFSET	0	179.8	-8.7
								CHANNELS 3  Xrotation Yrotation Zrotation
								End Site
								{
									OFFSET	1	0	0
								}
							}
						}
					}
					JOINT left_clavicle
					{
						OFFSET	-43.2	22.4	-70.8
						CHANNELS 3  Xrotation Yrotation Zrotation
						JOINT left_shoulder
						{
							OFFSET	-93.9	-5.79999	48.7
							CHANNELS 3  Xrotation Yrotation Zrotation
							JOINT left_elbow
							{
								OFFSET	-291.4	-30.8	15.2
								CHANNELS 3  Xrotation Yrotation Zrotation
								JOINT left_lowarm_twist
								{
									OFFSET	-110.7	-3.89999	13.6
									CHANNELS 3  Xrotation Yrotation Zrotation
									JOINT left_hand
									{
										OFFSET	-110.7	-3.89999	13.6
										CHANNELS 3  Xrotation Yrotation Zrotation
										JOINT left_ee
										{
											OFFSET	-80.8	-5.10001	12.1
											CHANNELS 3  Xrotation Yrotation Zrotation
											End Site
											{
												OFFSET	1	0	0
											}
										}
									}
								}
							}
						}
					}
					JOINT right_clavicle
					{
						OFFSET	43.2	22.4	-70.8
						CHANNELS 3  Xrotation Yrotation Zrotation
						JOINT right_shoulder
						{
							OFFSET	93.9	-5.79999	48.7
							CHANNELS 3  Xrotation Yrotation Zrotation
							JOINT right_elbow
							{
								OFFSET	291.4	-30.8	15.2
								CHANNELS 3  Xrotation Yrotation Zrotation
								JOINT right_lowarm_twist
								{
									OFFSET	110.7	-3.89999	13.6
									CHANNELS 3  Xrotation Yrotation Zrotation
									JOINT right_hand
									{
										OFFSET	110.7	-3.89999	13.6
										CHANNELS 3  Xrotation Yrotation Zrotation
										JOINT right_ee
										{
											OFFSET	80.8	-5.10001	12.1
											CHANNELS 3  Xrotation Yrotation Zrotation
											End Site
											{
												OFFSET	1	0	0
											}
										}
									}
								}
							}
						}
					}
				}
			}
		}
	}
	JOINT left_hip
	{
		OFFSET	-82.8	-127.5	0.300001
		CHANNELS 3  Xrotation Yrotation Zrotation
		JOINT left_knee
		{
			OFFSET	-28.2	-396.7	2.2
			CHANNELS 3  Xrotation Yrotation Zrotation
			JOINT left_ankle
			{
				OFFSET	-11.7	-411.3	35.4
				CHANNELS 3  Xrotation Yrotation Zrotation
				JOINT left_toes
				{
					OFFSET	0	-60	-88.6
					CHANNELS 3  Xrotation Yrotation Zrotation
					JOINT left_foot_ee
					{
						OFFSET	-22.5	-16.5	-42.2
						CHANNELS 3  Xrotation Yrotation Zrotation
						End Site
						{
							OFFSET	1	0	0
						}
					}
				}
			}
		}
	}
	JOINT right_hip
	{
		OFFSET	82.8	-127.5	0.300001
		CHANNELS 3  Xrotation Yrotation Zrotation
		JOINT right_knee
		{
			OFFSET	28.2	-396.7	2.2
			CHANNELS 3  Xrotation Yrotation Zrotation
			JOINT right_ankle
			{
				OFFSET	11.7	-411.3	35.4
				CHANNELS 3  Xrotation Yrotation Zrotation
				JOINT right_toes
				{
					OFFSET	0	-60	-88.6
					CHANNELS 3  Xrotation Yrotation Zrotation
					JOINT right_foot_ee
					{
						OFFSET	22.5	-16.5	-42.2
						CHANNELS 3  Xrotation Yrotation Zrotation
						End Site
						{
							OFFSET	1	0	0
						}
					}
				}
			}
		}
	}
}
MOTION
Frames: 13
Frame Time: 0.02
1611.91 760.921 -603.782 -175.644 -65.3696 177.318 0.763774 0.775582 3.81439 0.77171 0.531476 3.85593 0.810304 -0.235845 3.88519 0.789447 0.380236 3.87374 -10.6955 8.78844 -8.65368 -10.6563 22.3136 -6.11912 -0.0 0.0 -0.0 -1.57085 21.421 0.247569 -10.9505 -16.0015 67.8318 0.278313 -7.84995 0.0190954 -15.0134 -0.763801 1.75569 -0.735734 20.4608 3.87075 -0.0 0.0 -0.0 7.97817 21.0913 -14.8333 -7.16301 29.6165 -62.2126 2.10936 46.2525 -0.900943 -19.1276 1.05117 -2.19702 1.10054 -14.4995 -12.8983 0.0 0.0 0.0 20.3028 20.6684 -5.17953 -20.94 0.283281 3.18306 0.425212 28.3527 -0.0661332 5.75983 -0.0 -0.0 -0.0 0.0 -0.0 23.3938 13.5803 -0.237133 -13.6921 -0.317445 -2.07227 -5.64455 18.7515 -0.941067 0.871165 -0.0 -0.0 0.0 0.0 0.0 
1617.84 747.409 -607.666 -174.661 -65.7477 178.645 0.864267 0.609695 3.70907 0.871842 0.372611 3.74029 0.898428 -0.363461 3.74119 0.878974 0.231523 3.75165 -9.41877 8.84975 -8.51144 -9.30659 22.4216 -6.24104 -0.0 0.0 -0.0 -1.45449 21.3978 0.410305 -10.7356 -16.1032 68.1552 0.290213 -8.18114 0.0207548 -14.874 -0.754628 1.74039 -0.718647 20.4644 3.97345 -0.0 0.0 -0.0 7.10827 20.1342 -13.0039 -8.60737 28.8247 -62.0443 2.27499 48.4093 -1.02275 -18.7511 1.02356 -2.15749 1.07343 -13.2921 -12.2946 0.0 0.0 0.0 19.6563 20.4009 -5.02223 -19.8619 0.297257 3.01823 0.505171 28.1966 -0.0784784 5.63827 -0.0 -0.0 -0.0 0.0 -0.0 23.6434 13.4455 -1.10716 -13.2083 -0.314719 -1.99808 -5.3403 18.6931 -0.889319 1.05359 -0.0 -0.0 0.0 0.0 0.0 
1619.22 751.949 -608.781 -173.608 -66.0009 -179.124 0.9315 0.462965 3.37277 0.937794 0.247535 3.39536 0.954106 -0.415748 3.37891 0.938197 0.122787 3.40215 -8.47632 8.86321 -8.46375 -8.30595 22.47 -6.39843 -0.0 0.0 -0.0 -1.43828 21.3844 0.431446 -10.6775 -16.1497 68.254 0.298188 -8.40279 0.021905 -14.7613 -0.747237 1.728 -0.700579 20.4664 4.08131 -0.0 0.0 -0.0 6.64017 19.5151 -12.0329 -9.22954 28.372 -62.254 2.40832 50.0222 -1.12372 -18.4754 1.00351 -2.12844 1.05229 -12.4267 -11.8457 0.0 0.0 0.0 19.5797 20.2051 -5.04696 -18.4834 0.310605 2.80714 0.572749 28.0904 -0.0889043 5.55272 -0.0 -0.0 -0.0 0.0 -0.0 23.7448 13.3245 -1.653 -12.8837 -0.31254 -1.94834 -5.12808 18.6515 -0.853282 1.1823 -0.0 -0.0 0.0 0.0 0.0 
1630.34 753.019 -611.32 -173.822 -66.3995 -178.524 1.0187 0.377798 3.15575 1.02423 0.176327 3.17337 1.03524 -0.438126 3.14795 1.02142 0.0642725 3.17761 -7.81883 8.8724 -8.42057 -7.60807 22.4915 -6.4992 -0.0 0.0 -0.0 -1.4511 21.4825 0.428069 -10.8636 -16.1145 68.3288 0.301324 -8.48988 0.0223655 -14.6825 -0.742086 1.71933 -0.688136 20.466 4.15484 -0.0 0.0 -0.0 6.35467 19.0362 -11.4506 -9.45932 28.0624 -62.5196 2.51215 51.2074 -1.20397 -18.2678 0.9885 -2.10649 1.02846 -11.7995 -11.4626 0.0 0.0 0.0 19.4911 19.9413 -5.64127 -17.1607 0.318634 2.60437 0.606359 27.9855 -0.0940529 5.46344 -0.0 -0.0 -0.0 0.0 -0.0 23.7439 13.245 -1.98275 -12.683 -0.311051 -1.91757 -5.02766 18.6323 -0.836251 1.27239 -0.0 -0.0 0.0 0.0 0.0 
1637.85 764.445 -613.068 -172.271 -66.2562 -176.128 1.1549 0.305568 2.92208 1.15964 0.11909 2.93559 1.16659 -0.441842 2.90462 1.15482 0.0222273 2.93792 -7.36519 8.86954 -8.41477 -7.12512 22.5041 -6.59534 -0.0 0.0 -0.0 -1.36036 21.5617 0.569387 -10.8788 -16.1427 68.5775 0.309775 -8.72436 0.0236302 -14.6136 -0.73759 1.71175 -0.676019 20.4176 4.20663 -0.0 0.0 -0.0 6.15452 18.6856 -11.0443 -9.60525 27.8516 -62.7808 2.58597 52.0145 -1.26183 -18.121 0.977935 -2.09094 1.01218 -11.3608 -11.1957 0.0 0.0 0.0 19.3956 19.6978 -6.25559 -15.8947 0.321933 2.41016 0.702295 27.866 -0.10883 5.40033 -0.0 -0.0 -0.0 0.0 -0.0 23.2029 13.2352 -1.98941 -12.8973 -0.312637 -1.95041 -4.98341 18.647 -0.828924 1.34553 -0.0 -0.0 0.0 0.0 0.0 
1649.23 754.896 -614.608 -172.566 -66.141 -176.003 1.19196 0.237707 2.66604 1.19592 0.0676406 2.67575 1.19971 -0.44136 2.63999 1.18998 -0.0190387 2.67654 -7.05126 8.86329 -8.43844 -6.78925 22.5237 -6.69113 -0.0 0.0 -0.0 -1.306 21.5312 0.642297 -10.7937 -16.2459 68.6751 0.320467 -9.02062 0.0252794 -14.5646 -0.7344 1.70635 -0.667627 20.3798 4.24082 -0.0 0.0 -0.0 6.00284 18.3573 -10.7419 -10.4123 27.6267 -62.9502 2.61556 52.3301 -1.2852 -18.0181 0.970553 -2.08002 1.0055 -11.0764 -11.0472 0.0 0.0 0.0 19.2763 19.5094 -7.19236 -15.0132 0.321696 2.27491 0.725794 27.784 -0.112409 5.33127 -0.0 -0.0 -0.0 0.0 -0.0 22.9187 13.2325 -1.98608 -13.0972 -0.314005 -1.98105 -5.03052 18.6551 -0.836904 1.37385 -0.0 -0.0 0.0 0.0 0.0 
1655.23 756.122 -611.315 -171.597 -66.053 -174.913 1.22538 0.146546 2.46613 1.22876 -0.0106287 2.47046 1.22875 -0.478044 2.42382 1.22057 -0.0893699 2.46886 -6.84082 8.86058 -8.45185 -6.56418 22.5376 -6.75268 -0.0 0.0 -0.0 -1.48154 21.0988 0.32583 -10.8538 -16.4004 68.3768 0.343223 -9.6495 0.0289707 -14.5302 -0.732159 1.70255 -0.658502 20.3056 4.26434 -0.0 0.0 -0.0 5.80319 17.9801 -10.3401 -11.6461 27.2723 -62.9345 2.59255 52.0851 -1.26702 -17.9459 0.965384 -2.07236 1.00036 -10.9173 -10.9549 0.0 0.0 0.0 18.9879 19.4616 -7.51709 -14.4142 0.320347 2.18301 0.803212 27.5924 -0.124233 5.29844 -0.0 -0.0 -0.0 0.0 -0.0 22.6677 13.2182 -2.45394 -13.2421 -0.31493 -2.00327 -5.06403 18.6825 -0.842747 1.39318 -0.0 -0.0 0.0 0.0 0.0 
1668.74 756.351 -607.628 -169.251 -66.412 -171.853 1.3957 0.0326247 2.04431 1.39802 -0.0974987 2.04225 1.39469 -0.47651 1.98829 1.38921 -0.156585 2.03857 -6.69234 8.85818 -8.46148 -6.40534 22.5464 -6.79645 -0.0 0.0 -0.0 -1.45852 20.6984 0.297819 -10.5848 -16.5853 68.1595 0.36934 -10.3684 0.03351 -14.5066 -0.730625 1.69995 -0.654033 20.2316 4.2604 -0.0 0.0 -0.0 5.81712 17.6844 -10.3933 -12.5201 27.0769 -63.3209 2.56125 51.7475 -1.24239 -17.8876 0.961226 -2.06617 0.99933 -10.8159 -10.9105 0.0 0.0 0.0 18.2239 19.4816 -7.46914 -14.0436 0.319032 2.12618 0.920624 27.4501 -0.142233 5.27597 -0.0 -0.0 -0.0 0.0 -0.0 22.4763 13.1987 -2.87902 -13.4097 -0.31593 -2.02897 -5.08648 18.7355 -0.846927 1.40645 -0.0 -0.0 0.0 0.0 0.0 
1678.34 748.602 -605.977 -170.612 -66.9228 -172.705 1.46218 -0.039434 1.80229 1.46397 -0.15402 1.79614 1.45919 -0.484194 1.7365 1.45504 -0.203915 1.79116 -6.66263 9.85674 -6.1566 -6.4895 22.7327 -4.25383 -0.0 0.0 -0.0 -1.66062 20.4163 -0.0399003 -10.383 -16.3064 67.9389 0.429423 -12.0094 0.0451699 -15.0609 -0.76694 1.76091 -0.583457 19.2627 4.28306 -0.0 0.0 -0.0 5.72596 16.9153 -10.2558 -14.8331 27.1044 -63.9152 2.35151 49.3478 -1.0804 -17.7688 0.952753 -2.05353 1.10606 -10.0419 -11.3198 0.0 0.0 0.0 17.5977 19.5184 -7.39659 -13.7844 0.317894 2.08643 2.97467 27.1027 -0.45644 5.25371 -0.0 -0.0 -0.0 0.0 -0.0 22.948 13.0077 -3.77164 -15.015 -0.321699 -2.27518 -5.17374 18.2199 -0.857658 1.22813 -0.0 -0.0 0.0 0.0 0.0 
1684.11 755.339 -601.606 -171.037 -67.3659 -172.482 1.55607 0.181325 1.48735 1.5573 0.086324 1.49587 1.55966 -0.189649 1.48631 1.55658 0.0474384 1.49761 -6.71646 10.5919 -4.4142 -6.61303 22.8417 -2.32701 -0.0 0.0 -0.0 -1.79896 19.9989 -0.309458 -9.67547 -16.4977 67.6776 0.600329 -16.5618 0.087375 -15.4974 -0.795951 1.80866 -0.587386 18.4523 3.92605 -0.0 0.0 -0.0 5.93382 16.3179 -10.7474 -17.3419 27.0676 -64.2848 1.91877 43.5417 -0.766381 -16.5815 0.869571 -1.92629 1.13394 -9.49801 -11.3003 0.0 0.0 0.0 16.9767 19.3024 -8.38526 -13.6057 0.317004 2.05902 5.01623 25.59 -0.759166 5.23767 -0.0 -0.0 -0.0 0.0 -0.0 24.7327 12.6223 -4.89388 -19.7987 -0.297979 -3.00857 -4.46952 17.8631 -0.737504 1.89011 -0.0 -0.0 0.0 0.0 0.0 
1689.55 747.932 -601.113 -170.227 -68.0869 -171.444 1.79313 0.326957 1.22221 1.79392 0.248529 1.24053 1.79938 0.0220027 1.26499 1.79722 0.221492 1.24564 -6.93982 11.0898 -3.20311 -6.88542 22.9063 -0.955772 -0.0 0.0 -0.0 -1.85058 19.6387 -0.444379 -9.0798 -16.6623 67.4322 0.728463 -19.8425 0.127417 -15.809 -0.81688 1.84261 -0.570421 17.5779 3.66788 -0.0 0.0 -0.0 6.0494 16.4147 -10.9892 -18.2194 27.1218 -64.5811 1.65014 39.2604 -0.588603 -15.5791 0.801419 -1.81757 1.14679 -9.11517 -11.2418 0.0 0.0 0.0 16.5689 19.1851 -8.39491 -12.9694 0.313143 1.96146 6.53927 24.2937 -0.97888 5.22645 -0.0 -0.0 -0.0 0.0 -0.0 25.9681 12.3422 -5.82727 -22.8234 -0.251431 -3.4703 -3.92977 17.5515 -0.645934 2.36453 -0.0 -0.0 0.0 0.0 0.0 
1696.81 743.883 -598.738 -167.169 -69.1439 -168.495 2.14758 0.186403 1.03051 2.14816 0.120454 1.04028 2.15032 -0.0616977 1.04542 2.14881 0.104171 1.04204 -7.27494 11.1706 -2.15626 -7.26338 22.3294 0.180242 -0.0 0.0 -0.0 -1.88363 19.3206 -0.545735 -8.62148 -16.7664 67.1303 0.782699 -21.1925 0.146428 -15.315 -0.783785 1.78873 -0.495819 16.9721 3.87291 -0.0 0.0 -0.0 6.15651 17.0715 -11.1721 -18.8987 27.1208 -64.489 1.45274 35.7383 -0.46838 -14.5598 0.734086 -1.70582 1.14596 -9.02669 -11.2032 0.0 0.0 0.0 16.343 19.1792 -8.63366 -10.699 0.290541 1.61386 8.698 22.9458 -1.28541 3.81255 -0.0 -0.0 -0.0 0.0 -0.0 25.7948 11.5973 -5.94164 -24.7046 -0.210208 -3.75603 -1.13677 16.8526 -0.184512 3.13254 -0.0 -0.0 0.0 0.0 0.0 
1707.14 750.037 -598.313 -166.152 -69.9125 -167.005 2.38681 0.041098 0.805384 2.38717 -0.0102322 0.806366 2.38696 -0.146593 0.792997 2.38608 -0.0195182 0.806195 -7.58969 11.2277 -1.4003 -7.60696 21.922 1.00911 -0.0 0.0 -0.0 -1.85213 18.9612 -0.557657 -7.92504 -16.9503 66.9008 0.83585 -22.4921 0.166204 -14.969 -0.76088 1.75083 -0.442338 16.4751 3.99656 -0.0 0.0 -0.0 6.00075 17.5618 -10.7991 -19.3578 26.9633 -64.4479 1.30613 32.902 -0.385694 -13.8395 0.687713 -1.62614 1.14616 -8.96473 -11.1814 0.0 0.0 0.0 15.5967 19.2188 -8.61392 -9.10825 0.266507 1.37096 10.1906 21.9925 -1.49256 2.82513 -0.0 -0.0 -0.0 0.0 -0.0 25.8699 11.1034 -5.9393 -25.9047 -0.179017 -3.93755 0.960705 16.3789 0.154455 3.71011 -0.0 -0.0 0.0 0.0 0.0 
